<?xml version="1.0" standalone="no"?>
<!DOCTYPE svg PUBLIC "-//W3C//DTD SVG 20010904//EN"
 "http://www.w3.org/TR/2001/REC-SVG-20010904/DTD/svg10.dtd">
<svg version="1.0" xmlns="http://www.w3.org/2000/svg"
 width="2048.000000pt" height="2048.000000pt" viewBox="0 0 2048.000000 2048.000000"
 preserveAspectRatio="xMidYMid meet">

<g transform="translate(0.000000,2048.000000) scale(0.100000,-0.100000)"
fill="#000000" stroke="none">
<path d="M10067 19529 c-138 -32 -287 -185 -340 -348 -21 -66 -27 -74 -69 -99
-25 -15 -61 -41 -80 -57 -39 -36 -103 -122 -113 -154 -8 -27 -5 -27 -139 29
-91 38 -239 74 -389 96 -43 6 -49 10 -66 48 -57 130 -314 209 -519 161 -74
-17 -103 -31 -165 -79 l-46 -35 -57 19 c-113 39 -223 14 -305 -71 -84 -86 -88
-177 -12 -281 25 -34 30 -48 20 -48 -49 0 -278 -79 -392 -134 -224 -109 -356
-214 -478 -378 -31 -42 -57 -79 -57 -81 0 -3 -18 -35 -39 -72 -106 -181 -171
-446 -171 -694 0 -141 18 -225 78 -358 l48 -109 -39 -63 c-59 -98 -96 -224
-104 -353 -5 -93 -4 -108 9 -108 12 0 17 18 22 75 13 139 55 270 124 380 28
46 99 104 157 130 17 7 55 24 85 38 132 60 289 68 560 31 141 -19 323 -90 535
-206 249 -136 362 -244 380 -362 3 -22 8 -42 10 -44 6 -7 -53 -111 -79 -141
-39 -44 -131 -108 -233 -163 -131 -72 -429 -205 -513 -229 -244 -72 -413 -92
-585 -70 -175 24 -299 114 -374 272 -46 98 -91 217 -91 241 0 30 -18 29 -22
-2 -6 -41 35 -178 84 -278 104 -214 292 -302 612 -290 l117 4 -44 -45 c-179
-186 -271 -477 -232 -736 20 -130 63 -223 139 -301 53 -53 56 -59 56 -108 0
-82 24 -157 60 -187 26 -22 29 -29 17 -35 -8 -5 -38 -29 -67 -54 -29 -25 -63
-48 -77 -52 -15 -4 -61 4 -126 24 -184 55 -236 23 -282 -173 l-18 -77 -39 -5
c-22 -3 -64 -18 -95 -33 -117 -57 -179 -144 -170 -239 4 -48 8 -53 91 -132
134 -126 310 -235 539 -334 50 -21 86 -44 99 -61 14 -20 16 -28 6 -28 -21 0
-240 -20 -268 -24 -14 -3 -52 -7 -85 -11 -129 -14 -383 -75 -575 -137 -258
-84 -515 -214 -635 -323 -39 -35 -40 -36 -43 -13 -6 53 -13 68 -31 68 -32 0
-138 -59 -179 -100 l-39 -39 -24 25 c-33 35 -174 130 -304 204 -435 249 -834
371 -1185 365 -161 -2 -233 -30 -282 -107 -69 -107 -30 -532 89 -958 81 -291
259 -671 394 -841 16 -20 29 -39 29 -42 0 -3 -29 -11 -65 -18 -82 -16 -84 -31
-11 -96 54 -47 95 -73 148 -92 l28 -10 -17 -38 c-10 -21 -35 -60 -56 -87 -50
-66 -40 -78 77 -84 l85 -4 27 -42 c67 -102 296 -301 402 -347 23 -10 42 -20
42 -21 0 -11 -42 -157 -51 -178 -52 -118 -100 -186 -168 -235 -74 -55 -48 -84
83 -92 58 -4 94 -1 126 11 24 8 46 14 47 12 2 -1 -6 -38 -18 -82 -30 -111 -37
-310 -15 -424 9 -47 30 -113 46 -147 53 -108 171 -209 288 -247 28 -10 52 -19
52 -21 0 -1 -7 -20 -16 -41 -11 -27 -15 -56 -11 -95 8 -88 40 -138 115 -174
17 -9 32 -18 32 -20 0 -2 -17 -14 -37 -26 -75 -45 -199 -145 -263 -210 -123
-125 -187 -260 -241 -508 -17 -73 -37 -143 -46 -155 -9 -11 -57 -51 -107 -89
-50 -37 -104 -78 -121 -91 -105 -85 -145 -116 -185 -141 -73 -45 -197 -153
-246 -213 -58 -71 -110 -179 -128 -264 -32 -152 19 -279 139 -343 19 -11 38
-28 41 -39 15 -48 145 -129 206 -129 34 0 41 -4 70 -50 50 -79 142 -130 257
-143 l58 -6 -15 -62 c-26 -110 -3 -267 51 -353 105 -166 289 -233 495 -181 65
16 250 111 290 149 l32 30 49 -43 c43 -39 129 -99 264 -186 27 -17 61 -34 76
-37 l28 -6 -24 -60 c-26 -65 -43 -149 -43 -216 0 -24 -3 -43 -7 -43 -5 0 -30
9 -58 19 -66 25 -242 61 -299 61 -59 0 -92 -16 -118 -58 -19 -31 -20 -43 -15
-146 3 -61 15 -148 27 -194 11 -46 20 -84 20 -85 0 -1 -27 -3 -59 -4 -85 -2
-178 -30 -202 -61 -16 -21 -19 -34 -13 -67 9 -54 47 -143 102 -238 l45 -79
-56 -56 c-30 -32 -62 -72 -71 -89 -9 -18 -24 -33 -32 -33 -9 0 -34 -18 -57
-40 -24 -24 -47 -38 -56 -36 -9 3 -53 10 -99 15 -46 6 -87 13 -91 16 -5 2 -25
7 -46 11 -20 3 -58 12 -83 20 -26 9 -81 24 -122 34 -236 57 -501 139 -712 220
-29 11 -62 22 -73 24 -11 2 -37 14 -58 26 -20 12 -37 20 -37 17 0 -3 -12 0
-27 8 -15 8 -30 12 -35 9 -10 -6 -1 -24 12 -24 5 0 21 -5 37 -12 67 -27 128
-46 135 -42 5 3 8 1 8 -5 0 -21 268 -123 500 -190 280 -80 554 -150 632 -162
106 -16 106 -17 102 -169 -3 -102 1 -130 42 -307 14 -61 15 -79 5 -114 -15
-48 -2 -74 52 -108 29 -18 96 -118 99 -148 1 -14 96 -130 175 -213 34 -36 76
-83 95 -105 60 -72 172 -177 248 -233 41 -31 91 -67 110 -81 98 -74 222 -152
241 -154 10 -1 16 -3 14 -6 -5 -4 128 -89 155 -99 8 -3 33 -17 55 -31 189
-118 738 -393 980 -489 85 -34 324 -119 440 -156 180 -58 438 -137 465 -142
14 -3 45 -11 70 -19 62 -19 223 -51 355 -70 61 -9 121 -18 135 -20 158 -26
241 -33 495 -41 200 -6 316 -14 545 -41 218 -25 1419 -25 2170 1 289 9 541 19
560 20 19 2 91 7 160 10 69 4 143 9 165 11 22 3 121 12 220 20 99 9 243 22
320 30 77 7 165 16 195 19 97 10 202 25 314 46 61 11 173 29 250 40 78 11 166
28 196 37 477 142 701 275 791 467 24 52 31 82 36 163 5 86 3 111 -16 174 -21
69 -91 228 -112 253 -55 67 -159 218 -159 231 0 48 116 48 350 1 169 -34 346
-60 765 -112 288 -35 349 -39 655 -38 298 0 393 11 560 60 184 55 344 145 432
243 66 73 131 208 159 326 18 82 21 114 16 208 -3 62 -10 126 -15 142 -6 17
-24 73 -41 125 -53 167 -102 268 -226 470 -27 45 -54 89 -60 99 -19 33 -150
207 -214 286 -36 44 -75 91 -85 105 -11 14 -81 86 -156 160 l-136 135 29 30
c34 35 116 203 143 290 27 92 26 266 -4 373 -25 92 -81 219 -118 269 -13 17
-24 35 -24 38 0 22 -228 269 -315 342 -33 28 -78 67 -99 87 -22 21 -50 42 -63
47 -21 8 -23 14 -24 86 0 92 -6 168 -20 278 -5 44 -14 116 -19 160 -18 153
-72 316 -167 510 -27 55 -61 118 -75 140 -23 35 -28 57 -38 175 -6 74 -15 164
-20 200 -5 36 -14 103 -20 150 -6 47 -20 128 -30 180 -11 52 -24 138 -30 190
-13 104 -31 192 -80 375 -18 66 -36 138 -41 160 -15 61 -50 165 -74 216 -20
45 -21 51 -8 135 27 189 42 440 38 636 -2 109 -6 201 -9 206 -2 4 -12 57 -20
117 -9 61 -18 121 -21 135 -2 14 -12 61 -21 105 -15 78 -42 178 -69 262 -22
64 -105 228 -159 312 -27 43 -28 46 -12 70 18 29 53 99 86 176 12 28 33 73 46
100 12 28 39 97 59 155 20 58 40 114 45 125 27 58 29 63 113 470 46 217 61
564 34 730 -53 317 -176 695 -275 846 -9 15 -39 62 -66 105 -51 82 -89 125
-143 162 -17 12 -31 30 -31 40 1 9 -2 47 -7 85 -7 66 -7 67 16 67 135 3 271
76 321 173 17 34 19 52 15 106 -8 93 -40 189 -89 263 -84 128 -317 332 -493
431 -44 24 -96 53 -115 64 -47 27 -137 56 -149 49 -5 -4 -38 20 -72 51 -186
171 -341 263 -574 341 -160 54 -283 75 -434 76 -177 1 -169 -16 16 -38 161
-20 323 -58 448 -106 75 -29 264 -124 275 -139 3 -3 32 -24 64 -46 59 -40 242
-213 306 -290 82 -99 192 -291 256 -445 73 -177 122 -386 141 -600 5 -56 11
-70 41 -105 20 -22 50 -51 68 -64 39 -28 198 -276 216 -336 4 -11 18 -51 33
-90 81 -217 122 -366 162 -585 12 -68 9 -394 -5 -490 -7 -47 -14 -103 -17
-125 -8 -74 -17 -120 -37 -193 -11 -40 -28 -121 -39 -180 -20 -108 -21 -115
-32 -142 -3 -8 -11 -33 -18 -55 -6 -22 -15 -44 -19 -50 -4 -5 -18 -46 -29 -90
-12 -44 -35 -107 -51 -140 -16 -33 -38 -85 -50 -115 -24 -62 -90 -183 -102
-188 -4 -2 -8 -11 -8 -19 0 -20 -200 -219 -265 -263 -55 -37 -74 -58 -75 -79
-1 -45 186 75 311 200 l87 88 45 -87 c81 -158 135 -323 174 -530 58 -312 65
-396 59 -682 -2 -140 -7 -271 -11 -290 -5 -31 -8 -52 -14 -110 -1 -8 -8 1 -16
20 -7 19 -32 83 -55 141 -52 135 -204 405 -287 514 -5 6 -39 51 -77 100 -39
50 -105 125 -148 167 -182 178 -323 200 -528 81 -67 -39 -90 -60 -155 -142
-27 -35 -72 -90 -98 -122 -60 -74 -166 -237 -174 -267 -3 -15 -11 -21 -20 -18
-8 3 -11 1 -8 -4 7 -11 -45 -136 -70 -170 -6 -8 -18 -35 -25 -59 -8 -24 -19
-45 -24 -47 -6 -2 -12 -19 -13 -37 -1 -17 -9 -45 -17 -62 -9 -16 -16 -36 -16
-43 0 -7 -5 -10 -10 -7 -6 3 -52 17 -103 30 -64 17 -91 28 -88 37 2 7 11 47
18 88 8 41 19 89 25 105 5 17 19 63 29 103 11 41 31 91 44 113 27 41 31 59 15
59 -18 0 -11 38 16 87 58 104 222 340 319 459 31 37 53 69 50 72 -11 11 -163
-152 -273 -293 -81 -103 -166 -247 -207 -350 -15 -38 -31 -79 -36 -90 -17 -41
-40 -123 -57 -205 -15 -77 -19 -85 -40 -85 -15 0 -29 12 -42 33 -23 37 -164
179 -219 220 -20 15 -42 33 -50 40 -24 23 -120 92 -127 92 -4 0 -15 6 -23 14
-9 7 -50 31 -91 53 -41 22 -109 58 -150 80 -102 55 -183 84 -414 148 -167 47
-167 23 -1 -43 55 -22 125 -47 155 -57 30 -10 81 -29 114 -42 66 -27 345 -183
393 -220 36 -28 51 -55 25 -46 -32 12 -7 -6 53 -36 76 -39 109 -66 99 -83 -4
-7 -4 -10 1 -6 13 12 47 -12 41 -28 -4 -10 -2 -12 6 -8 12 8 123 -106 131
-135 4 -17 -2 -18 -72 -15 -318 14 -856 -8 -1096 -45 -413 -64 -643 -126 -730
-196 l-20 -16 20 5 c11 3 58 16 105 30 177 51 236 64 390 87 217 32 407 51
647 66 200 12 715 9 818 -6 96 -13 263 -56 305 -78 36 -18 49 -16 59 10 35 90
46 117 62 154 11 24 19 45 19 48 0 14 161 328 200 390 62 98 223 298 273 339
63 50 156 80 252 80 81 1 85 -1 186 -60 36 -21 196 -190 260 -274 156 -206
275 -411 344 -590 59 -151 182 -504 189 -540 4 -19 13 -55 21 -80 22 -74 85
-306 91 -331 2 -13 7 -40 10 -59 3 -19 16 -93 30 -165 13 -71 29 -191 34 -265
22 -304 30 -396 36 -425 4 -16 27 -70 51 -119 92 -184 168 -375 192 -481 6
-27 17 -97 25 -155 46 -331 56 -562 31 -725 -33 -219 -83 -369 -206 -621 -51
-104 -174 -306 -190 -312 -5 -2 -9 -8 -9 -14 0 -32 -217 -303 -356 -444 -52
-52 -94 -100 -94 -105 0 -5 -6 -9 -14 -9 -8 0 -16 -7 -20 -15 -3 -8 -11 -14
-18 -13 -7 2 -12 -5 -12 -14 1 -10 -2 -16 -6 -13 -4 3 -58 -36 -119 -85 -61
-50 -157 -121 -214 -158 -56 -37 -136 -91 -177 -118 -86 -58 -247 -146 -305
-168 -22 -8 -78 -29 -125 -46 -339 -126 -552 -182 -905 -240 -298 -50 -415
-59 -820 -66 -414 -7 -426 -6 -490 53 -90 82 -267 222 -384 303 -28 19 -72 54
-99 77 -26 24 -52 43 -58 43 -6 0 -17 7 -24 15 -7 9 -19 14 -27 11 -7 -3 -13
1 -13 8 0 8 -15 21 -32 29 -18 9 -45 28 -60 42 -15 14 -30 25 -33 25 -3 0 -15
9 -27 20 -12 11 -28 20 -35 20 -8 0 -12 4 -8 9 3 5 -11 15 -30 22 -19 7 -35
17 -35 21 0 4 -7 8 -15 8 -8 0 -15 5 -15 11 0 5 -4 8 -9 5 -5 -4 -11 -2 -13 2
-1 4 -25 23 -53 42 -27 19 -54 38 -60 43 -25 20 -114 77 -155 99 -25 12 -47
26 -50 29 -3 3 -32 21 -65 39 -32 18 -82 47 -110 65 -47 30 -75 35 -75 15 0
-11 108 -85 153 -106 18 -8 70 -35 116 -59 46 -25 87 -42 92 -39 5 3 9 -1 9
-8 0 -13 99 -84 113 -80 4 1 7 -2 7 -7 0 -8 35 -32 145 -98 11 -7 30 -17 43
-22 12 -6 22 -14 22 -18 0 -5 20 -21 45 -36 24 -16 59 -42 76 -58 17 -16 37
-29 44 -29 7 0 18 -7 25 -15 7 -8 21 -15 31 -15 11 0 19 -5 19 -11 0 -6 7 -17
15 -25 8 -9 15 -13 15 -10 0 3 15 -10 33 -29 19 -19 37 -32 40 -28 4 3 7 2 7
-4 0 -5 28 -32 62 -59 74 -58 312 -269 348 -309 14 -15 48 -45 75 -66 74 -56
252 -233 321 -319 91 -114 163 -225 209 -326 78 -169 92 -239 64 -329 -34
-112 -108 -195 -226 -254 -80 -40 -227 -82 -318 -91 -127 -12 -421 -3 -535 16
-180 31 -486 114 -631 173 -13 5 -67 26 -119 46 -52 20 -104 41 -115 46 -11 4
-42 17 -70 28 -178 69 -181 70 -600 276 -170 84 -339 170 -375 191 -36 20
-105 58 -155 84 -49 26 -104 56 -122 66 -17 11 -62 36 -100 58 -37 21 -84 48
-103 61 -133 84 -304 197 -355 232 -33 23 -119 78 -191 123 -72 44 -150 97
-173 118 l-41 37 35 70 c57 115 43 223 -35 262 -43 22 -204 16 -287 -11 -18
-6 -12 10 42 118 89 175 127 350 91 415 -21 38 -94 81 -137 81 l-37 0 20 53
c28 72 36 198 15 230 -15 23 -14 25 31 53 25 16 55 38 67 49 39 37 132 160
154 203 12 23 43 75 70 115 26 39 60 101 75 137 14 36 37 77 50 90 14 14 63
63 110 110 102 101 151 188 160 287 7 66 28 173 75 373 31 132 53 199 81 240
10 14 29 48 43 75 22 44 48 78 167 211 63 71 70 100 85 369 3 61 11 144 17
185 19 141 33 260 48 404 12 116 70 413 104 536 13 47 33 124 45 171 50 203
244 726 340 916 59 118 151 277 163 281 4 2 8 8 8 14 0 8 81 122 135 188 104
127 218 222 352 292 95 49 98 50 172 46 57 -2 88 -9 123 -28 54 -28 167 -135
188 -177 8 -15 40 -75 72 -133 54 -98 98 -199 135 -310 8 -25 28 -72 44 -106
36 -74 99 -235 99 -250 0 -7 9 -42 20 -78 16 -52 25 -66 40 -66 16 0 19 6 15
28 -2 15 -7 47 -10 71 -8 60 -55 201 -98 291 -20 41 -57 134 -83 205 -26 72
-68 167 -93 213 -25 46 -57 106 -71 133 -39 77 -56 98 -131 159 -23 19 -47 40
-53 45 -36 33 -129 57 -221 58 -65 1 -77 -3 -173 -51 -147 -73 -250 -161 -375
-317 -44 -55 -83 -101 -87 -103 -3 -1 -11 8 -17 21 -33 72 -165 172 -263 201
-106 30 -144 37 -207 38 l-72 1 0 122 c0 123 -9 186 -37 261 l-16 42 56 57
c31 32 56 63 56 70 0 7 -19 15 -45 18 -41 6 -125 49 -125 64 0 3 22 30 50 59
28 29 50 59 50 67 0 24 -27 39 -58 33 -25 -6 -36 1 -96 59 -50 47 -66 70 -62
82 15 37 18 172 7 239 -28 163 -112 360 -227 534 -23 36 -52 75 -63 87 -12 12
-21 25 -21 29 0 3 16 29 36 56 43 59 96 182 87 204 -4 12 -14 14 -42 10 -20
-3 -60 -9 -90 -12 l-54 -7 7 44 c4 24 11 70 16 101 5 36 18 70 34 91 14 19 26
39 26 45 0 7 5 12 10 12 6 0 10 7 10 15 0 8 5 15 10 15 6 0 10 5 10 10 0 20
75 111 140 171 133 122 417 310 597 394 43 20 89 42 103 49 18 8 31 31 50 86
24 71 33 91 82 179 23 41 85 121 108 137 8 7 29 24 45 39 33 29 198 112 282
141 l52 18 28 -25 c30 -28 107 -60 187 -79 143 -33 378 22 601 142 87 47 215
152 215 177 0 9 -7 24 -15 34 -13 18 -16 17 -62 -14 -26 -18 -52 -39 -56 -46
-4 -7 -12 -13 -16 -13 -4 0 -39 -20 -77 -45 -37 -25 -72 -45 -76 -45 -4 0 -36
-13 -70 -30 -34 -16 -69 -30 -78 -30 -9 0 -20 -4 -26 -9 -5 -4 -49 -18 -99
-31 -153 -38 -281 -18 -366 58 l-39 35 0 82 c0 63 6 99 29 163 15 45 33 87 39
94 6 7 14 27 18 43 9 36 56 125 92 174 49 67 182 181 211 181 4 0 16 9 28 19
22 21 83 55 83 46 0 -3 9 2 19 12 23 21 133 80 137 73 1 -3 10 2 20 11 33 29
178 78 215 74 43 -5 58 7 136 115 102 140 170 203 358 328 191 127 455 228
760 292 50 10 133 28 185 40 52 11 138 24 190 28 77 6 95 10 98 24 8 43 -131
41 -350 -7 -91 -19 -168 -35 -171 -35 -3 0 1 24 9 53 7 28 19 101 25 160 10
91 9 128 -6 240 -30 230 -73 366 -162 514 -44 74 -128 186 -155 208 -45 37
-86 65 -95 65 -5 0 -16 -26 -23 -57 -24 -110 -82 -211 -183 -319 l-52 -56 0
95 c0 122 -9 133 -67 83 -24 -21 -79 -55 -123 -76 -78 -38 -219 -85 -213 -72
2 4 17 34 34 67 36 68 68 165 83 252 40 225 53 616 26 788 -7 44 -15 98 -18
120 -3 22 -10 69 -16 105 -17 107 -22 232 -12 285 5 28 21 104 36 170 26 119
26 120 10 199 -34 158 -87 230 -191 259 -70 20 -179 22 -238 5 -56 -16 -163
-87 -218 -146 l-45 -48 -45 41 c-64 56 -241 144 -373 183 -118 35 -286 65
-366 65 l-75 -1 -14 62 c-7 33 -17 68 -21 76 -5 8 -24 50 -43 92 -38 84 -98
153 -165 187 -43 22 -115 26 -184 10z m204 -69 c71 -53 123 -151 174 -325 10
-33 24 -66 33 -72 10 -8 49 -12 106 -12 156 0 360 -49 525 -128 83 -40 211
-120 211 -132 0 -11 50 -32 60 -26 5 3 24 26 41 51 37 50 119 116 182 145 49
22 162 26 234 7 89 -22 155 -123 169 -261 6 -65 -12 -191 -44 -297 -19 -62
-19 -190 -1 -305 6 -38 13 -92 15 -120 3 -27 12 -93 20 -145 16 -106 23 -468
11 -570 -32 -268 -76 -393 -190 -535 -101 -126 -270 -258 -437 -340 -64 -32
-231 -87 -300 -100 -19 -3 -66 -13 -104 -22 -62 -14 -94 -15 -290 -4 -433 24
-687 84 -802 188 -40 37 -55 65 -57 113 -2 69 106 204 206 256 49 25 208 71
285 83 23 3 41 11 40 16 -4 12 -85 13 -147 2 l-43 -8 5 48 c4 26 11 135 18
241 11 174 14 191 28 178 75 -65 315 -130 463 -124 65 3 73 5 73 23 0 18 -9
21 -85 27 -150 12 -349 75 -425 133 -50 38 -68 68 -60 103 10 49 97 136 187
187 46 26 105 60 131 76 27 16 53 29 58 29 5 0 9 5 9 10 0 23 -61 6 -176 -50
-98 -47 -134 -71 -177 -115 l-54 -56 1 48 c1 61 -21 231 -39 303 -21 81 -78
211 -130 298 -26 42 -49 82 -53 89 -4 6 -36 53 -71 104 -90 129 -178 219 -287
291 l-92 61 26 50 c37 68 114 143 180 175 l55 27 18 72 c26 103 52 149 138
234 65 64 85 78 141 96 36 12 88 22 116 22 46 1 59 -4 105 -39z m-1634 -319
c37 -11 89 -34 116 -50 48 -31 91 -86 83 -108 -7 -18 15 -31 69 -38 161 -21
315 -59 414 -103 136 -59 298 -167 386 -257 133 -135 330 -467 374 -632 20
-74 58 -367 53 -414 -3 -33 1 -55 13 -72 21 -32 23 -226 5 -357 -7 -47 -13
-112 -15 -145 l-4 -60 -38 -11 c-54 -16 -134 -58 -172 -90 -36 -30 -99 -111
-124 -161 -60 -115 37 -247 229 -313 154 -54 393 -93 622 -104 68 -3 127 -8
132 -11 23 -14 155 -5 261 19 320 72 551 196 764 411 85 87 93 92 135 93 63 3
186 46 261 91 35 22 65 38 66 37 1 -1 3 -43 4 -94 3 -110 8 -112 85 -47 104
90 187 222 208 333 l12 65 49 -52 c101 -106 213 -304 256 -452 54 -187 72
-419 45 -561 -27 -136 -34 -150 -91 -167 -291 -84 -486 -165 -629 -259 -96
-64 -121 -78 -111 -63 11 19 -14 76 -48 108 -78 74 -196 132 -377 187 -47 14
-98 30 -115 35 -16 6 -41 12 -55 15 -14 3 -36 8 -50 11 -14 3 -54 8 -90 10
-36 2 -65 5 -65 6 0 1 -17 3 -165 13 -47 4 -103 9 -125 13 -34 5 -153 6 -327
3 -26 0 -50 -5 -53 -10 -3 -5 63 -9 152 -10 149 -1 215 -4 291 -13 17 -3 32 0
32 5 0 5 4 7 10 3 5 -3 41 -8 80 -10 39 -3 75 -7 81 -10 5 -4 9 -1 9 5 0 7 5
8 13 3 6 -4 20 -8 30 -9 9 -1 19 -2 22 -3 3 0 7 -1 10 -2 2 0 27 -7 55 -14 37
-10 50 -10 50 -2 0 8 3 7 9 -1 4 -8 11 -13 15 -12 7 2 135 -42 191 -65 17 -6
46 -18 65 -25 124 -48 288 -165 290 -207 0 -6 12 -21 26 -32 15 -12 23 -21 17
-21 -20 0 -187 -167 -248 -248 l-65 -85 -88 -22 c-87 -23 -283 -111 -396 -179
-32 -20 -62 -36 -66 -36 -5 0 -10 -3 -12 -7 -1 -5 -35 -32 -75 -62 -130 -98
-225 -239 -301 -446 -14 -38 -29 -75 -33 -81 -14 -17 -123 -17 -176 1 -83 28
-301 146 -350 189 -43 38 -93 61 -77 34 4 -6 3 -8 -3 -5 -6 4 -30 0 -53 -8
-129 -46 -296 -45 -445 2 -101 32 -240 109 -324 181 -24 20 -48 36 -53 35 -4
-2 -7 0 -6 5 3 7 -9 22 -79 104 -24 27 -43 44 -43 37 0 -20 107 -163 162 -215
60 -58 225 -161 309 -192 73 -27 196 -52 257 -52 60 0 172 29 235 60 l47 24
43 -41 c23 -22 67 -53 97 -70 260 -142 316 -164 386 -145 24 7 48 12 52 12 5
0 8 -28 8 -62 0 -35 3 -79 7 -98 l7 -35 -104 -38 c-205 -76 -322 -162 -422
-314 -30 -45 -54 -86 -54 -91 0 -4 -6 -17 -14 -28 -14 -19 -15 -19 -38 3 -32
30 -100 53 -158 53 -52 0 -65 9 -76 55 -11 47 -59 137 -88 166 -36 36 -102 53
-184 46 -54 -4 -82 -13 -143 -46 -42 -22 -82 -41 -88 -41 -6 0 -36 16 -66 36
-29 20 -84 44 -121 54 l-67 17 -27 79 c-15 43 -39 105 -53 137 -15 32 -27 60
-27 63 0 17 -75 125 -112 163 -60 60 -88 72 -166 73 -109 0 -216 -43 -387
-157 -150 -100 -311 -231 -428 -348 -54 -55 -101 -97 -104 -94 -3 3 -14 59
-24 124 -15 88 -30 138 -58 198 -47 100 -78 137 -137 164 -56 27 -90 22 -148
-21 l-41 -30 -17 54 c-19 60 -22 128 -9 176 13 43 -1 74 -48 105 -101 68 -151
147 -176 282 -19 98 -19 167 0 263 40 194 127 373 238 486 39 38 51 44 157 70
l115 29 52 -36 c72 -48 149 -69 255 -69 84 0 108 5 108 21 0 4 -48 12 -107 18
-113 11 -215 41 -245 71 -17 17 -13 20 114 77 119 52 287 135 387 190 35 19
140 91 171 117 9 7 35 42 59 78 39 60 42 68 36 110 -4 25 -9 49 -12 54 -3 4
-6 25 -7 46 -6 126 -312 340 -710 499 -183 73 -555 100 -719 53 -80 -23 -203
-80 -247 -114 l-24 -19 -19 38 c-11 20 -35 81 -53 133 -33 94 -33 100 -33 257
2 331 79 582 255 830 127 179 329 321 604 426 113 43 222 75 270 79 52 4 52
36 1 91 -96 104 -87 197 25 263 71 42 108 46 192 24 40 -11 79 -20 87 -20 9 0
38 18 66 40 28 22 66 47 84 56 80 38 214 40 332 5z m6486 -3760 c-2 -6 4 -8
12 -5 8 4 15 1 15 -6 0 -6 4 -9 9 -5 14 8 61 -16 54 -28 -4 -6 -1 -7 6 -2 7 4
22 -2 37 -16 13 -12 24 -19 24 -15 0 7 56 -31 86 -59 6 -5 22 -17 35 -25 13
-8 37 -28 55 -45 18 -16 60 -54 94 -84 71 -63 143 -153 175 -220 29 -59 49
-154 42 -198 -13 -78 -96 -149 -206 -178 -100 -26 -97 -27 -112 70 -7 47 -16
88 -21 91 -5 3 -3 13 4 22 8 10 9 13 1 9 -7 -5 -14 4 -18 25 -12 54 -65 211
-76 224 -5 6 -9 16 -8 20 1 5 -3 22 -9 37 -7 16 -9 33 -6 39 4 7 2 8 -5 4 -7
-5 -20 13 -38 51 -30 67 -133 233 -145 233 -4 0 -8 6 -8 13 0 6 -9 23 -20 37
-26 33 -25 41 3 31 12 -5 21 -14 20 -20z m-6247 -932 c72 -44 155 -187 224
-383 40 -116 84 -304 95 -406 3 -28 8 -74 11 -102 8 -64 7 -611 -2 -758 -3
-58 -12 -148 -20 -200 -13 -88 -13 -96 4 -108 28 -21 62 -25 108 -15 l43 10
-21 -41 c-11 -23 -41 -64 -65 -92 -32 -38 -41 -57 -36 -70 4 -11 39 -62 78
-114 93 -123 128 -196 190 -385 41 -127 57 -257 44 -354 -5 -35 -7 -72 -4 -82
7 -22 108 -110 153 -133 17 -9 32 -21 32 -26 0 -5 -18 -26 -40 -46 -22 -21
-40 -41 -40 -46 0 -17 65 -70 114 -93 l48 -23 -41 -44 c-45 -46 -45 -49 -17
-126 37 -100 45 -277 20 -432 -34 -206 -65 -311 -135 -467 -39 -85 -18 -98 34
-20 63 96 94 199 145 477 l8 45 49 1 c98 2 233 -40 335 -104 45 -28 138 -122
148 -150 1 -4 -23 -45 -53 -92 -30 -46 -55 -88 -55 -92 0 -5 -11 -25 -23 -46
-43 -68 -128 -241 -167 -337 -4 -11 -13 -33 -20 -50 -76 -189 -196 -543 -220
-650 -9 -44 -29 -123 -43 -175 -39 -144 -94 -448 -112 -616 -19 -176 -22 -201
-41 -319 -7 -49 -14 -135 -14 -190 0 -138 -18 -263 -44 -300 -11 -16 -56 -73
-101 -126 -53 -65 -97 -131 -132 -200 -53 -107 -63 -139 -108 -344 -15 -66
-33 -149 -41 -185 -8 -36 -17 -98 -20 -139 -5 -73 -25 -138 -54 -176 -8 -11
-59 -58 -113 -104 -89 -76 -102 -91 -142 -172 -24 -49 -64 -117 -87 -151 -24
-34 -52 -79 -63 -99 -33 -62 -156 -189 -215 -223 -97 -56 -147 -71 -235 -70
-93 2 -142 17 -207 65 -38 28 -48 43 -58 83 -19 75 -6 222 29 334 18 59 25 92
17 92 -20 0 -92 -171 -108 -256 l-11 -64 -17 38 c-19 43 -69 89 -106 98 -45
12 -105 -4 -176 -45 -39 -23 -72 -40 -72 -39 -1 2 -10 26 -19 54 -22 63 -24
138 -8 227 13 66 9 96 -9 67 -5 -8 -19 -51 -31 -94 -29 -110 -24 -199 14 -249
33 -44 21 -55 -32 -28 -115 59 -200 143 -248 247 -26 54 -28 68 -27 174 1 171
12 227 82 395 59 141 186 362 250 435 58 66 67 91 56 161 -17 99 -9 290 16
419 12 63 23 120 24 126 1 7 7 18 13 25 5 8 13 28 17 44 5 27 4 27 -14 -9 -10
-21 -23 -43 -28 -50 -15 -18 -50 -124 -73 -221 -22 -95 -30 -262 -17 -365 4
-30 4 -60 0 -67 -10 -15 -184 -109 -219 -117 -166 -39 -262 -47 -337 -29 -130
32 -287 132 -316 202 -11 28 -16 30 -88 36 -116 9 -202 30 -294 72 -117 52
-181 96 -269 183 -83 82 -121 133 -194 258 -54 92 -60 99 -80 82 -14 -12 -30
-82 -26 -112 1 -10 -2 -18 -8 -18 -15 0 -70 123 -86 192 -17 74 -15 242 3 260
23 23 12 54 -35 103 -25 27 -58 74 -72 105 -24 52 -26 64 -25 200 1 129 4 154
28 223 32 95 32 105 2 117 -14 5 -29 18 -35 28 -7 14 -26 22 -63 27 -111 14
-159 59 -166 152 -3 52 0 63 28 106 40 59 34 69 -63 98 -83 25 -142 62 -209
131 -91 93 -128 212 -128 410 0 117 25 261 55 321 31 62 7 79 -63 43 -45 -23
-181 -44 -201 -32 -5 4 19 33 54 67 74 71 113 140 149 264 15 50 31 103 36
119 5 16 7 32 4 37 -5 9 -63 39 -76 39 -5 0 -29 14 -53 30 -24 17 -48 30 -53
30 -6 0 -12 3 -14 8 -1 4 -45 45 -97 92 -52 47 -117 112 -144 145 -69 83 -78
88 -153 86 -35 -1 -64 1 -64 5 0 3 9 17 19 30 23 29 65 149 57 162 -3 5 -25
12 -48 16 -38 6 -168 82 -184 107 -3 5 12 10 33 10 126 4 133 23 48 135 -37
48 -70 95 -73 104 -3 8 -17 33 -31 55 -99 157 -202 389 -258 585 -13 47 -26
92 -28 100 -82 283 -133 699 -102 841 9 44 53 93 104 115 51 23 247 27 374 9
360 -52 717 -193 1074 -423 55 -36 118 -79 140 -97 22 -18 54 -40 72 -50 l32
-19 49 46 c47 44 129 94 138 85 3 -2 0 -26 -6 -52 -23 -103 11 -110 97 -22
172 178 575 361 978 447 182 38 268 52 408 65 89 9 176 18 192 22 17 4 38 6
48 4 29 -4 22 47 -8 61 -27 12 -33 32 -13 44 12 8 94 23 151 29 15 1 31 3 36
4 5 0 23 31 41 69 132 284 383 609 614 795 225 183 385 280 518 316 84 23 136
20 184 -10z m-1228 -99 c18 -11 36 -28 39 -38 4 -9 10 -19 14 -22 24 -17 71
-153 85 -248 9 -57 22 -121 29 -142 12 -34 11 -39 -9 -61 -27 -31 -166 -226
-166 -234 0 -4 -13 -25 -28 -48 -28 -40 -54 -90 -101 -188 l-22 -45 -92 -18
c-103 -20 -98 -21 -262 54 -38 18 -79 36 -90 41 -32 14 -201 112 -231 134 -83
62 -185 148 -198 167 -21 30 -20 61 3 107 32 62 141 131 207 131 61 0 81 14
88 62 13 85 40 179 58 198 31 33 60 33 162 1 140 -45 183 -40 241 25 11 13 56
50 100 83 89 67 118 74 173 41z m1583 -422 c19 -6 60 -31 92 -55 72 -54 98
-55 184 -5 35 20 74 43 86 49 31 18 152 16 186 -1 29 -15 82 -111 95 -173 10
-44 24 -52 97 -59 91 -8 121 -20 159 -59 47 -48 36 -76 -47 -120 -103 -55
-175 -96 -233 -133 -30 -20 -72 -46 -92 -59 -118 -72 -314 -211 -366 -258 -19
-16 -56 -64 -84 -105 l-51 -75 6 290 c3 160 1 317 -3 350 -4 33 -11 92 -14
130 -6 62 -28 188 -40 226 -9 28 -16 69 -13 69 2 0 19 -5 38 -12z m-3801
-5293 c10 -12 10 -24 2 -53 -20 -69 -35 -216 -30 -307 8 -132 30 -203 88 -267
41 -46 46 -56 38 -78 -5 -13 -9 -78 -10 -145 0 -100 3 -131 22 -185 48 -140
134 -259 174 -244 19 7 19 18 1 114 l-6 35 26 -30 c14 -16 51 -67 81 -111 62
-92 215 -254 240 -254 2 0 18 -9 33 -21 l28 -21 -41 -37 c-82 -74 -356 -262
-424 -291 -121 -51 -261 -128 -380 -209 -180 -122 -250 -162 -327 -187 -239
-77 -449 -12 -531 164 -31 68 -31 129 1 252 14 52 25 106 24 120 0 24 0 24
-15 5 -20 -27 -72 -191 -77 -244 -2 -23 -1 -63 3 -88 l7 -45 -29 6 c-66 13
-115 44 -148 91 l-32 47 4 106 c4 70 12 128 25 167 22 65 22 80 -2 49 -28 -37
-57 -130 -65 -213 -5 -46 -11 -85 -13 -88 -3 -2 -23 17 -45 43 -81 95 -84 214
-8 371 39 80 60 110 129 178 45 45 114 103 152 128 39 25 99 68 135 96 36 29
72 57 80 64 48 38 130 96 165 117 46 27 67 47 84 77 12 23 40 135 48 193 8 54
39 169 63 233 50 132 172 272 365 417 63 47 88 60 116 60 21 0 42 -7 49 -15z
m980 -1674 c36 -6 84 -11 108 -11 40 0 48 -5 105 -63 72 -72 145 -116 254
-153 72 -24 87 -26 193 -21 134 7 226 25 298 60 29 14 52 23 52 20 0 -2 -35
-59 -78 -126 -81 -126 -107 -176 -149 -287 -53 -138 -63 -190 -69 -350 -6
-143 -5 -159 16 -212 32 -85 116 -187 190 -231 34 -21 73 -40 87 -43 24 -6 21
-11 -68 -100 l-92 -93 -42 94 c-75 167 -185 305 -270 341 -164 68 -306 -86
-348 -382 l-12 -84 -70 71 c-82 84 -231 211 -294 251 -67 42 -128 40 -180 -8
l-40 -35 -43 23 c-66 35 -257 170 -314 222 -29 25 -61 46 -72 46 -12 0 -42
-18 -68 -40 -50 -45 -167 -107 -254 -136 -74 -24 -197 -25 -272 -1 -106 34
-202 144 -234 267 -13 50 -15 89 -11 164 4 55 10 103 14 107 4 4 51 15 103 24
52 9 118 24 146 35 51 19 187 97 293 169 160 110 272 177 383 231 68 33 137
69 153 79 32 21 120 73 170 100 52 29 119 78 153 114 l34 35 81 -34 c45 -18
111 -38 147 -43z m10167 -509 c28 -26 76 -67 105 -92 108 -90 261 -273 326
-391 35 -63 76 -182 98 -283 22 -104 7 -235 -41 -341 -45 -101 -70 -152 -89
-180 -12 -16 -22 -32 -23 -34 -1 -2 -24 16 -51 40 -27 24 -82 66 -123 93 -41
27 -141 115 -224 195 -82 81 -176 170 -208 200 l-59 54 51 108 c28 59 67 154
86 211 39 113 85 341 85 419 0 27 3 49 8 49 4 0 30 -22 59 -48z m-9621 -717
c74 -43 156 -151 219 -289 30 -67 115 -313 115 -335 0 -5 -20 -1 -44 10 -39
17 -63 19 -193 16 -165 -3 -210 -16 -270 -76 l-32 -32 -28 21 c-43 31 -158 60
-241 60 -111 0 -159 -16 -211 -69 l-44 -46 -71 71 c-39 39 -97 88 -128 109
l-58 38 0 94 c0 81 4 105 31 174 17 44 45 97 62 116 28 32 35 35 74 30 53 -6
141 -70 320 -235 l123 -114 0 -79 c0 -70 2 -79 18 -79 17 0 20 12 25 123 18
332 124 543 262 520 17 -3 48 -16 71 -28z m835 -98 c27 -18 41 -42 72 -121 55
-141 98 -291 104 -361 l5 -61 -83 -70 c-46 -39 -119 -104 -162 -145 -50 -48
-82 -72 -90 -67 -31 20 -120 47 -161 49 -43 3 -46 4 -46 31 0 38 -20 83 -61
138 -22 30 -41 75 -57 135 -40 149 -46 127 70 246 116 119 190 176 281 220 75
35 84 35 128 6z m8635 -135 c359 -356 604 -668 734 -933 28 -57 59 -120 69
-139 11 -19 33 -77 50 -129 150 -456 28 -718 -374 -802 -101 -22 -360 -17
-505 9 -262 47 -591 152 -855 272 -169 77 -329 157 -399 199 -45 26 -126 73
-181 103 -176 98 -215 123 -215 139 0 10 19 26 48 39 66 31 169 92 287 168
273 178 265 172 413 313 32 31 68 62 80 68 13 7 20 16 17 22 -4 5 -1 9 4 9 17
0 237 224 314 319 88 109 296 409 323 467 9 19 20 34 23 34 4 0 79 -71 167
-158z m-8405 -188 c48 -40 74 -52 134 -63 l40 -7 -35 -18 c-19 -10 -58 -36
-87 -57 -29 -22 -54 -39 -56 -39 -3 0 -8 24 -11 54 -4 29 -14 75 -22 101 -23
78 -22 79 37 29z m-2315 -63 c166 -36 262 -88 409 -221 43 -39 81 -70 85 -70
5 0 2 -24 -6 -52 -27 -101 -10 -227 42 -315 l25 -43 -95 0 c-156 0 -276 -50
-313 -131 -10 -21 -21 -39 -24 -39 -9 0 -139 159 -176 218 -80 125 -145 303
-169 467 -31 206 1 233 222 186z m2735 -8 c13 -33 -2 -120 -32 -189 -10 -25
-19 -54 -19 -63 0 -12 -16 -25 -48 -38 -54 -23 -155 -85 -308 -190 l-105 -73
-44 10 c-30 7 -60 7 -88 0 -54 -12 -57 -12 -57 2 0 6 -12 27 -26 45 l-26 35
33 35 c59 61 267 242 352 305 90 67 155 100 250 128 89 26 105 25 118 -7z
m-1489 -188 c-28 -30 -58 -73 -69 -95 -12 -27 -23 -38 -33 -34 -8 3 -31 8 -51
11 l-37 5 15 37 c20 47 40 69 85 92 35 18 94 36 127 38 7 1 -10 -24 -37 -54z
m299 7 c41 -21 64 -42 95 -89 45 -66 60 -113 38 -113 -17 0 -170 -63 -246
-101 -31 -16 -84 -53 -118 -83 -52 -47 -64 -53 -88 -47 -22 6 -28 15 -34 47
-11 62 -9 135 6 189 50 188 200 273 347 197z m-645 -8 c83 -21 127 -50 128
-86 1 -23 -3 -27 -34 -32 -58 -9 -177 -72 -229 -121 -60 -56 -99 -140 -108
-229 -3 -37 -9 -66 -13 -66 -8 0 -71 92 -94 136 -58 117 -30 302 56 368 63 47
177 59 294 30z m1907 -125 c73 -38 81 -76 47 -213 -45 -177 -166 -368 -365
-575 -143 -149 -236 -209 -453 -297 -79 -32 -199 -64 -239 -64 -8 0 7 17 34
38 96 76 306 318 410 472 82 123 110 286 58 348 -29 35 -32 31 85 106 178 113
209 131 280 162 81 36 109 40 143 23z m8561 -25 c3 -8 2 -12 -4 -9 -6 3 -10
10 -10 16 0 14 7 11 14 -7z m-10255 -3 c24 -6 24 -8 25 -133 l1 -125 -80 -6
c-101 -6 -200 -45 -266 -105 -36 -32 -54 -42 -69 -37 -17 6 -20 15 -20 73 1
115 44 196 138 258 96 64 204 94 271 75z m778 -122 c36 -19 77 -49 91 -67 l25
-33 -24 -6 c-45 -12 -188 -90 -257 -142 -74 -54 -139 -127 -200 -222 l-37 -58
-55 0 c-68 1 -139 -16 -204 -48 l-48 -25 -32 30 c-17 16 -62 51 -101 77 -38
27 -86 61 -105 75 -19 15 -61 43 -92 62 l-57 34 31 33 c72 76 212 113 356 92
l89 -12 59 56 c56 54 196 132 320 180 65 25 163 14 241 -26z m-2124 23 c10 -4
32 -41 50 -83 18 -41 48 -101 66 -133 41 -71 184 -250 223 -279 15 -11 28 -28
28 -36 1 -26 38 -100 72 -143 18 -23 72 -74 121 -115 69 -57 82 -72 60 -67
-101 23 -154 39 -198 59 -67 32 -248 144 -309 192 -48 37 -161 171 -225 265
-47 70 -112 211 -118 256 -5 39 -5 40 38 56 77 29 159 41 192 28z m2449 -173
c48 -25 61 -50 56 -113 -9 -109 -111 -271 -313 -502 -133 -150 -202 -213 -263
-237 -114 -45 -373 -97 -484 -97 -236 0 -594 150 -828 345 -154 129 -203 196
-216 297 -11 80 53 143 177 173 199 49 392 -30 775 -317 35 -27 69 -48 75 -48
6 0 26 9 44 20 45 28 162 51 223 43 l50 -6 50 74 c84 125 130 177 205 233 93
69 201 123 291 146 76 20 99 18 158 -11z m9316 -14 c-3 -3 -9 2 -12 12 -6 14
-5 15 5 6 7 -7 10 -15 7 -18z m62 -45 c0 -5 -4 -10 -10 -10 -5 0 -10 5 -10 10
0 6 5 10 10 10 6 0 10 -4 10 -10z m178 -111 c21 -33 8 -32 -16 1 -12 16 -16
27 -9 25 7 -3 18 -15 25 -26z m-8724 -110 c24 -11 39 -38 51 -90 8 -31 -22
-108 -73 -189 -59 -93 -227 -264 -355 -361 -129 -97 -210 -142 -327 -181 -144
-49 -224 -61 -339 -55 -115 7 -296 43 -376 75 -45 17 -51 24 -56 56 -3 20 -13
44 -22 54 -20 22 -21 32 -4 32 6 0 53 11 102 24 50 13 133 29 186 35 158 18
417 124 546 224 67 52 184 171 268 272 57 69 59 70 139 91 90 24 221 30 260
13z m8633 -101 c-3 -8 -6 -5 -6 6 -1 11 2 17 5 13 3 -3 4 -12 1 -19z m-11816
-98 c201 -159 414 -257 575 -264 41 -2 69 -13 140 -55 49 -28 104 -57 122 -63
17 -7 32 -14 32 -18 -1 -3 -19 -17 -41 -33 -38 -26 -99 -108 -99 -133 0 -22
-172 -27 -285 -10 -165 26 -275 63 -500 172 -110 53 -128 65 -210 149 -150
151 -189 232 -131 270 32 21 129 33 247 31 l95 -2 55 -44z m12258 -385 c0 -5
-6 -1 -14 9 -8 11 -15 27 -15 35 1 17 29 -26 29 -44z m-9305 -14 c3 -4 31 -18
63 -30 32 -11 69 -30 82 -40 23 -17 23 -21 11 -50 -37 -91 -294 -239 -478
-276 -19 -4 -74 -4 -123 0 l-90 7 -20 40 c-11 22 -17 44 -12 48 4 4 33 15 63
25 151 48 258 107 390 214 84 68 104 79 114 62z m-2963 -80 c174 -84 290 -124
403 -140 37 -5 71 -12 74 -15 4 -4 70 -172 72 -182 0 -1 -20 -7 -44 -13 -95
-24 -411 -3 -579 39 -84 21 -259 93 -277 115 -17 20 10 74 72 143 29 32 66 75
81 95 15 21 29 37 31 37 2 0 77 -36 167 -79z m1014 30 c169 -60 352 -76 520
-46 75 14 82 13 105 -4 57 -41 29 -110 -69 -175 -115 -76 -242 -145 -309 -167
-97 -32 -149 -24 -298 51 -183 91 -223 145 -175 238 25 47 111 129 139 132 2
0 41 -13 87 -29z m7985 -81 c0 -17 7 -20 50 -20 28 0 50 5 50 10 0 6 14 10 30
10 29 0 30 -1 30 -50 l0 -50 40 0 40 0 0 -40 c0 -33 3 -40 20 -40 18 0 20 -7
20 -80 0 -73 -2 -80 -20 -80 -19 0 -20 -7 -20 -134 l0 -133 -31 -7 c-17 -3
-44 -6 -60 -6 -22 0 -29 -5 -29 -20 0 -17 -7 -20 -40 -20 -33 0 -40 -3 -40
-20 0 -17 7 -20 40 -20 33 0 40 -3 40 -20 0 -11 5 -20 10 -20 6 0 10 -18 10
-40 l0 -40 -50 0 -50 0 0 -40 c0 -33 -3 -40 -20 -40 -18 0 -20 -7 -20 -80 l0
-80 -40 0 -40 0 0 -80 0 -80 -40 0 -40 0 0 -50 c0 -43 3 -50 20 -50 16 0 20
-7 20 -30 0 -23 4 -30 20 -30 17 0 20 -7 20 -40 l0 -40 -40 0 -40 0 0 -40 c0
-33 -3 -40 -20 -40 -11 0 -20 -4 -20 -10 0 -5 -17 -10 -37 -10 -21 -1 -56 -7
-78 -15 -22 -8 -69 -15 -105 -16 -48 -1 -58 -3 -40 -9 14 -4 18 -9 10 -9 -52
-6 -129 -11 -222 -17 -60 -3 -108 -10 -108 -15 0 -5 -40 -9 -90 -9 -53 0 -90
4 -90 10 0 6 -26 10 -59 10 -86 0 -121 9 -121 31 0 17 -8 19 -70 19 l-70 0 0
30 c0 21 -5 30 -16 30 -20 0 -44 24 -44 44 0 9 -8 16 -20 16 -17 0 -20 7 -20
40 0 38 2 40 30 40 l30 0 0 60 c0 53 2 60 20 60 13 0 20 7 20 20 0 16 7 20 30
20 28 0 30 2 30 40 0 22 5 40 10 40 6 0 10 18 10 40 l0 40 40 0 40 0 0 60 0
60 -30 0 c-23 0 -30 4 -30 20 0 13 -7 20 -20 20 -17 0 -20 7 -20 40 0 22 5 40
10 40 6 0 10 18 10 40 0 22 -4 40 -10 40 -5 0 -10 18 -10 40 0 22 5 40 10 40
6 0 10 47 10 120 l0 120 60 0 c53 0 60 2 60 20 0 11 5 20 10 20 6 0 10 9 10
20 0 11 5 20 10 20 6 0 10 18 10 40 0 33 3 40 19 40 16 0 20 8 23 38 l3 37 55
6 c30 4 68 12 83 18 16 6 42 11 58 11 31 0 69 15 80 32 8 12 159 -1 159 -13 0
-5 32 -9 70 -9 57 0 70 3 70 16 0 26 26 44 64 44 29 0 36 4 36 20 0 16 7 20
30 20 17 0 30 5 30 10 0 6 9 10 20 10 11 0 20 5 20 10 0 6 14 10 30 10 17 0
30 5 30 10 0 6 33 10 80 10 73 0 80 -2 80 -20z m3310 -108 c0 -30 -3 -41 -12
-36 -8 5 -9 2 -4 -11 10 -27 -11 -120 -47 -205 -17 -41 -34 -77 -37 -80 -3 -3
-14 -21 -24 -40 -39 -71 -176 -182 -227 -184 -16 -1 -25 -6 -22 -13 3 -7 -7
-15 -21 -19 -14 -3 -26 -9 -26 -13 0 -13 -190 -77 -254 -86 -17 -2 -67 -11
-111 -21 -128 -28 -748 -24 -905 6 -25 5 -92 14 -150 20 -58 6 -141 18 -185
26 -113 19 -253 37 -297 38 -21 0 -38 4 -38 8 0 4 -17 8 -39 8 -21 0 -78 11
-125 25 -47 14 -101 25 -119 25 -17 0 -54 6 -81 13 -35 9 -70 10 -120 4 -39
-4 -77 -9 -83 -9 -7 -1 -14 -5 -14 -10 -3 -18 -5 -24 -19 -45 -19 -30 -30 -29
-30 2 0 14 4 25 9 25 5 0 9 14 9 30 -1 17 -5 30 -10 30 -4 0 -8 9 -8 20 0 13
7 20 18 20 10 0 24 9 32 19 13 19 23 20 144 15 140 -5 278 -21 286 -33 7 -11
29 -13 143 -15 61 0 100 -5 105 -12 8 -13 83 -22 245 -30 81 -4 107 -9 107
-19 0 -9 19 -15 63 -18 71 -5 110 -11 123 -20 6 -3 118 -7 249 -8 185 -1 240
1 243 11 3 7 7 8 11 3 3 -6 34 -13 67 -17 50 -5 65 -4 78 9 9 9 16 12 16 6 0
-14 226 -15 235 -1 3 6 31 10 61 10 30 0 62 4 72 9 9 5 64 24 121 42 58 19
112 41 120 50 9 9 29 19 44 23 31 7 38 13 92 64 19 19 39 31 44 28 18 -12 39
6 62 52 13 26 30 53 36 60 7 7 13 18 13 23 0 5 5 9 11 9 7 0 27 16 45 35 25
25 34 43 34 68 0 21 7 41 20 52 11 10 20 28 20 40 0 13 3 37 6 55 9 43 24 19
24 -38z m-10566 12 l34 -17 -34 -46 c-189 -253 -323 -370 -623 -541 -73 -41
-107 -55 -147 -58 -126 -10 -148 13 -292 308 -102 211 -156 331 -149 336 1 1
45 4 97 6 l95 5 20 -41 c11 -23 42 -58 70 -79 66 -50 215 -122 293 -142 74
-19 125 -11 228 35 98 44 313 180 342 216 15 19 28 34 29 34 1 0 18 -7 37 -16z
m446 -89 l154 -3 18 -43 c25 -57 36 -245 18 -289 -33 -79 -202 -98 -470 -54
-80 14 -139 29 -345 91 -17 5 -16 9 16 37 72 63 249 277 249 301 0 8 32 4 103
-13 81 -19 134 -25 257 -27z m1730 -315 c0 -11 6 -20 13 -20 7 0 19 -9 27 -20
8 -11 23 -20 33 -20 23 0 47 -23 47 -44 0 -13 12 -16 54 -16 l54 0 7 -40 7
-40 79 0 c72 0 79 -2 79 -20 0 -11 5 -20 10 -20 6 0 10 -9 10 -20 0 -11 5 -20
10 -20 6 0 10 -13 10 -30 0 -23 4 -30 20 -30 11 0 20 -4 20 -10 0 -6 27 -10
60 -10 53 0 60 -2 60 -20 0 -18 7 -20 80 -20 l80 0 0 -320 0 -320 -80 0 c-44
0 -80 -3 -80 -6 0 -21 35 -34 94 -34 59 0 66 -2 66 -20 0 -18 -7 -20 -80 -20
-64 0 -80 -3 -80 -15 0 -12 -16 -15 -80 -15 -61 0 -80 3 -80 14 0 12 -131 22
-344 25 -16 0 -32 5 -35 10 -4 5 -75 14 -160 19 -85 6 -157 15 -160 20 -3 5
-22 13 -41 17 -19 4 -48 14 -63 22 -16 8 -53 14 -85 13 -56 -2 -132 17 -132
32 0 5 -21 8 -47 8 -27 1 -66 8 -88 16 -22 9 -51 18 -65 21 -14 3 -39 11 -57
19 -17 8 -50 14 -73 14 -40 0 -70 17 -70 39 0 14 -28 19 -128 24 -46 2 -87 8
-90 14 -4 6 -33 16 -64 23 -32 7 -58 16 -58 20 0 4 -36 15 -80 25 -64 15 -80
22 -80 37 0 14 -8 18 -40 18 -38 0 -40 2 -40 30 0 23 -4 30 -20 30 -13 0 -20
7 -20 20 0 13 -7 20 -20 20 -14 0 -20 7 -20 23 1 49 14 53 190 64 106 6 165
14 168 22 2 6 14 11 26 11 34 0 76 23 76 43 0 10 8 17 19 17 11 0 23 9 26 20
3 11 10 20 15 20 5 0 12 9 15 20 3 11 13 20 20 20 17 0 24 26 28 97 1 28 5 49
10 46 4 -2 7 1 7 6 0 6 20 11 46 11 26 0 52 6 60 14 18 19 167 33 172 17 7
-21 41 -12 48 13 7 29 36 38 97 30 39 -6 46 -4 56 15 14 25 34 27 55 6 17 -17
46 -20 46 -5 0 6 9 10 20 10 11 0 20 5 20 10 0 6 14 10 30 10 17 0 30 5 30 10
0 6 9 10 20 10 11 0 20 5 20 10 0 6 7 10 16 10 9 0 22 7 29 16 8 12 20 15 43
9 18 -3 32 -11 32 -16 0 -5 32 -9 70 -9 40 0 70 4 70 10 0 6 9 10 20 10 11 0
20 5 20 10 0 6 5 10 10 10 6 0 10 -9 10 -20z m3800 -100 c0 -16 -7 -20 -30
-20 -23 0 -30 4 -30 20 0 16 7 20 30 20 23 0 30 -4 30 -20z m-7583 -11 c5 -5
37 -13 69 -16 32 -4 73 -15 89 -25 17 -10 38 -21 48 -24 9 -4 17 -10 17 -15 0
-5 8 -9 17 -9 23 0 63 -39 63 -62 0 -11 7 -18 20 -18 11 0 20 -4 20 -10 0 -5
10 -10 23 -10 24 0 82 -52 71 -63 -4 -4 4 -11 17 -16 26 -10 63 -47 98 -98 12
-18 28 -33 34 -33 7 0 27 -16 46 -35 18 -19 41 -35 52 -35 10 0 19 -4 19 -10
0 -5 6 -10 14 -10 8 0 18 -9 21 -20 3 -11 15 -20 26 -20 10 0 19 -3 19 -8 0
-4 18 -15 40 -25 23 -10 40 -24 40 -33 0 -15 9 -16 68 -10 37 3 81 9 97 11 48
8 115 -4 115 -21 0 -8 8 -14 18 -14 10 0 24 -9 32 -20 11 -15 26 -20 62 -20
26 0 48 -4 48 -10 0 -5 14 -10 30 -10 17 0 30 -4 30 -10 0 -5 10 -10 23 -10
12 0 29 -9 37 -20 8 -11 22 -20 31 -20 28 0 49 -11 49 -26 0 -11 17 -14 70
-14 40 0 70 -4 70 -10 0 -5 9 -10 20 -10 11 0 20 -4 20 -10 0 -5 14 -10 30
-10 17 0 30 -4 30 -10 0 -5 7 -10 15 -10 8 0 15 -4 15 -10 0 -5 11 -20 25 -34
14 -14 25 -32 25 -41 0 -12 14 -15 70 -15 40 0 70 -4 70 -10 0 -5 9 -10 20
-10 11 0 20 -4 20 -10 0 -5 20 -10 45 -10 30 0 47 -5 51 -14 3 -8 28 -17 62
-21 31 -4 62 -10 67 -15 6 -4 25 -11 43 -15 17 -3 32 -11 32 -16 0 -5 34 -9
76 -9 54 0 80 -4 90 -15 9 -8 31 -15 50 -15 19 0 34 -4 34 -9 0 -8 71 -31 118
-37 13 -1 30 -8 38 -15 8 -7 54 -14 102 -17 48 -2 90 -8 93 -14 9 -13 81 -27
146 -28 31 0 53 -5 55 -12 4 -11 30 -16 170 -32 15 -1 33 -8 40 -14 8 -6 75
-14 151 -18 75 -4 137 -11 137 -15 0 -5 14 -9 31 -9 17 0 38 -4 48 -9 10 -6
43 -11 74 -12 31 -1 57 -6 57 -11 0 -4 30 -8 66 -8 36 0 74 -4 84 -10 10 -5
73 -12 141 -15 67 -3 128 -10 134 -15 18 -15 2657 -18 2729 -3 32 7 126 15
210 18 83 3 167 10 186 15 19 5 69 12 110 15 109 9 389 39 498 55 39 5 102 14
140 18 37 5 74 11 82 15 8 3 45 8 81 11 37 3 82 12 100 20 19 8 70 21 114 30
44 9 91 21 105 26 14 5 43 12 65 15 22 3 42 10 43 15 2 6 41 10 86 10 68 0 86
3 104 20 14 13 35 20 63 20 27 0 47 6 58 18 19 22 114 72 136 72 8 0 15 7 15
15 0 8 7 15 15 15 18 0 58 37 68 63 3 9 13 17 22 17 8 0 15 9 15 20 0 13 7 20
19 20 11 0 22 9 26 19 3 11 19 34 35 51 26 28 38 73 40 155 2 63 -2 75 -21 75
-12 0 -19 7 -19 20 0 13 -7 20 -20 20 -11 0 -20 7 -20 15 0 8 -9 19 -20 25
-11 6 -20 20 -20 32 0 11 -8 28 -18 37 -10 9 -21 24 -25 34 -3 9 -13 17 -22
17 -8 0 -15 9 -15 20 0 11 -5 20 -10 20 -7 0 -10 36 -8 100 2 94 3 98 20 83
10 -9 18 -20 18 -25 0 -5 9 -19 20 -31 34 -37 71 -98 65 -108 -3 -5 0 -7 7 -4
8 3 29 -19 52 -52 22 -31 34 -53 28 -49 -8 5 -10 2 -6 -8 3 -9 10 -14 14 -11
15 9 87 -157 104 -239 27 -133 -4 -253 -89 -342 -26 -27 -56 -60 -68 -74 -12
-14 -51 -40 -87 -59 -36 -19 -67 -37 -70 -40 -5 -6 -69 -31 -150 -59 -25 -9
-67 -26 -95 -38 -27 -12 -67 -26 -87 -29 -21 -4 -38 -11 -38 -15 0 -4 -17 -11
-37 -15 -21 -5 -42 -10 -48 -12 -40 -13 -147 -33 -181 -33 -22 0 -44 -4 -50
-9 -5 -5 -49 -12 -99 -16 -49 -4 -104 -13 -122 -20 -18 -8 -70 -17 -115 -21
-46 -3 -87 -9 -92 -12 -10 -6 -23 -7 -626 -68 -41 -5 -96 -8 -122 -9 -25 0
-44 -3 -42 -7 3 -4 -4 -7 -13 -7 -10 1 -28 -2 -40 -6 -16 -5 -23 -3 -23 5 0 9
-4 10 -13 2 -7 -6 -22 -11 -32 -10 -79 2 -393 -15 -413 -23 -18 -7 -27 -6 -32
2 -5 6 -10 7 -13 2 -4 -5 -55 -11 -114 -12 -59 -1 -115 -4 -125 -7 -9 -3 -19
0 -23 6 -3 5 -11 10 -16 10 -6 0 -7 -5 -4 -10 3 -6 2 -10 -4 -10 -5 0 -12 6
-15 13 -4 7 -8 8 -11 2 -3 -6 -45 -8 -112 -4 -60 3 -121 2 -138 -3 -16 -4
-430 -9 -920 -10 -772 -1 -909 1 -1030 15 -77 9 -295 24 -485 33 -235 11 -347
19 -352 27 -6 9 -8 8 -8 -1 0 -8 -5 -10 -12 -6 -7 4 -30 8 -53 9 -47 2 -134
14 -155 22 -20 7 -41 10 -130 18 -41 3 -115 15 -165 26 -49 12 -103 23 -120
26 -16 3 -35 9 -41 14 -6 5 -14 6 -17 2 -4 -3 -7 -1 -7 4 0 6 -8 10 -17 9 -10
-2 -27 0 -38 4 -11 5 -45 15 -75 24 -273 79 -541 165 -554 177 -6 5 -20 9 -31
9 -12 0 -24 3 -28 6 -3 3 -56 23 -119 45 -62 21 -114 43 -116 49 -2 5 -13 10
-25 11 -29 0 -119 43 -111 52 4 4 -2 7 -12 7 -11 0 -26 6 -33 13 -11 10 -13
10 -7 0 9 -17 1 -17 -16 0 -7 7 -46 25 -85 41 -40 15 -73 32 -73 37 0 5 -6 9
-13 9 -25 0 -182 81 -200 103 -10 12 -16 16 -12 10 7 -15 -11 -18 -20 -3 -3 6
-17 10 -31 10 -13 0 -24 4 -24 10 0 5 -38 28 -85 51 -47 22 -85 44 -85 48 0 4
-26 19 -57 35 -77 37 -117 59 -121 69 -2 4 -9 7 -16 7 -6 0 -38 18 -71 40 -33
22 -65 40 -71 40 -6 0 -21 9 -33 19 -12 10 -46 34 -76 52 -30 18 -55 39 -55
47 0 7 -4 10 -10 7 -5 -3 -30 15 -54 41 -30 31 -50 45 -61 40 -9 -3 -14 -2
-11 3 7 10 -28 43 -40 39 -11 -3 -151 111 -211 172 -55 56 -70 80 -48 80 8 0
15 5 15 10 0 13 63 13 77 -1z m8823 -539 c0 -5 9 -10 20 -10 11 0 20 -4 20
-10 0 -5 -9 -10 -20 -10 -13 0 -20 -7 -20 -20 0 -11 -4 -20 -10 -20 -5 0 -10
18 -10 40 0 22 5 40 10 40 6 0 10 -4 10 -10z"/>
<path d="M9994 19271 c-44 -20 -121 -101 -130 -138 -8 -30 19 -71 52 -79 14
-4 67 -4 117 -1 66 4 107 1 144 -9 73 -21 105 -16 121 19 12 24 12 37 2 73
-19 66 -67 109 -149 134 -82 24 -103 24 -157 1z m61 -121 c10 -30 -5 -51 -34
-49 -14 2 -35 -2 -46 -8 -25 -14 -55 0 -55 26 0 50 120 77 135 31z"/>
<path d="M11555 18784 c-47 -24 -71 -51 -73 -82 -3 -35 7 -43 84 -81 33 -16
82 -47 109 -70 61 -52 113 -79 140 -73 35 7 65 43 65 76 -1 74 -47 181 -82
192 -10 3 -18 9 -18 14 0 16 -82 40 -138 40 -32 0 -70 -7 -87 -16z m111 -75
c8 -7 14 -24 12 -38 -4 -35 -53 -41 -91 -11 -30 24 -34 39 -14 59 14 14 71 8
93 -10z"/>
<path d="M10420 18642 c0 -14 15 -28 52 -46 29 -14 57 -26 62 -26 7 0 11 -28
11 -73 0 -79 17 -133 46 -142 25 -8 93 11 132 38 59 40 87 65 87 77 0 11 34 6
55 -10 20 -15 66 -20 85 -10 31 16 25 40 -9 40 -52 0 -141 42 -197 92 l-53 49
-58 -12 c-52 -10 -64 -9 -118 10 -98 36 -95 35 -95 13z m298 -102 c29 -28 52
-53 52 -58 0 -14 -101 -73 -134 -79 -40 -6 -45 4 -52 97 -5 65 -5 66 21 68 15
1 34 6 43 12 9 5 17 10 18 10 0 0 24 -23 52 -50z"/>
<path d="M10823 17283 c-18 -6 -16 -30 3 -37 25 -10 124 -7 124 4 0 20 -94 44
-127 33z"/>
<path d="M7010 17901 c-68 -21 -160 -89 -160 -118 0 -19 11 -16 39 11 43 40
102 68 158 73 33 4 53 11 53 18 0 23 -41 31 -90 16z"/>
<path d="M8395 17831 c-7 -13 3 -17 50 -20 64 -3 130 -29 178 -71 44 -39 61
-43 50 -12 -21 61 -118 112 -210 112 -34 0 -64 -4 -68 -9z"/>
<path d="M6990 17733 c-112 -44 -191 -287 -125 -387 18 -27 21 -28 69 -21 54
8 131 10 208 5 65 -4 95 17 103 74 14 94 -30 213 -108 289 -43 41 -53 47 -90
46 -23 0 -49 -3 -57 -6z m158 -155 c29 -29 -1 -98 -42 -98 -35 0 -48 49 -26
91 12 21 50 25 68 7z"/>
<path d="M8362 17659 c-91 -45 -151 -151 -166 -292 -10 -92 24 -120 119 -97
45 11 59 10 104 -5 110 -36 175 -21 187 43 24 127 -42 318 -123 357 -42 20
-70 19 -121 -6z m168 -150 c17 -31 4 -68 -25 -75 -51 -13 -76 50 -33 80 30 21
45 20 58 -5z"/>
<path d="M9036 15065 c4 -8 8 -15 10 -15 2 0 4 7 4 15 0 8 -4 15 -10 15 -5 0
-7 -7 -4 -15z"/>
<path d="M8693 14201 c-88 -71 -290 -285 -419 -446 -190 -236 -317 -413 -407
-565 -66 -113 -77 -146 -50 -153 38 -11 146 -12 150 -1 4 11 -60 34 -95 34
-16 0 -20 4 -15 18 7 19 112 197 142 240 60 87 146 208 151 212 3 3 19 23 36
45 184 241 175 229 274 339 137 153 273 276 303 276 17 0 76 -70 112 -131 l19
-34 4 28 c7 54 -86 177 -134 177 -12 0 -44 -17 -71 -39z"/>
<path d="M8913 13913 c3 -27 9 -91 12 -143 4 -52 14 -147 22 -210 10 -67 17
-202 18 -325 3 -258 2 -242 18 -227 23 24 19 367 -9 622 -13 124 -29 249 -35
278 -13 66 -34 70 -26 5z"/>
<path d="M3874 12989 c-49 -14 -57 -31 -57 -122 0 -109 8 -176 38 -343 48
-257 94 -415 175 -594 58 -129 73 -151 92 -132 9 9 7 22 -11 59 -111 226 -146
335 -206 653 -27 144 -31 178 -40 309 -8 114 -4 121 53 121 66 0 206 -42 252
-75 8 -6 44 -24 80 -40 36 -16 76 -37 90 -46 14 -9 51 -29 83 -44 31 -16 57
-35 57 -42 0 -8 4 -12 9 -8 5 3 31 -8 58 -25 26 -16 62 -36 79 -44 17 -7 38
-23 46 -35 8 -11 17 -18 20 -15 3 3 26 -9 51 -26 25 -16 48 -30 53 -30 4 0 22
-11 39 -24 18 -14 59 -39 91 -56 32 -17 66 -35 74 -40 8 -5 53 -33 100 -61 47
-29 98 -62 113 -75 30 -25 47 -30 47 -14 0 27 -100 106 -235 185 -144 85 -391
238 -447 276 -15 11 -30 19 -32 19 -3 0 -36 18 -72 41 -113 68 -333 177 -413
203 -91 29 -145 37 -187 25z"/>
<path d="M8915 12895 c-4 -31 -5 -59 -1 -62 13 -13 35 23 41 70 7 43 6 47 -13
47 -17 0 -22 -9 -27 -55z"/>
<path d="M8755 12834 c-9 -14 -15 -15 -33 -5 -26 14 -46 6 -35 -14 5 -7 41
-40 82 -74 54 -45 77 -59 85 -51 8 8 -5 26 -47 66 -31 31 -54 60 -51 65 3 5
10 7 15 3 5 -3 7 -10 3 -15 -3 -5 -1 -8 4 -7 5 2 28 -18 52 -44 23 -27 46 -48
51 -48 22 0 5 40 -37 88 -47 54 -72 64 -89 36z"/>
<path d="M8040 12328 c-124 -17 -224 -87 -274 -191 -35 -73 -42 -120 -21 -140
36 -36 110 -13 294 93 155 89 193 131 177 195 -6 23 -10 25 -99 49 -7 2 -41
-1 -77 -6z m85 -31 c59 -16 66 -32 30 -75 -48 -57 -310 -202 -364 -202 -26 0
-26 15 0 85 28 76 106 155 179 183 65 25 88 26 155 9z"/>
<path d="M5105 12090 c-4 -6 -21 -16 -38 -24 -18 -7 -72 -43 -120 -80 -49 -36
-93 -63 -98 -60 -5 3 -8 1 -7 -4 2 -5 -37 -44 -87 -87 -181 -157 -286 -268
-268 -286 7 -7 48 27 124 99 190 181 418 377 489 419 29 17 39 33 21 33 -6 0
-13 -5 -16 -10z"/>
<path d="M6067 11782 c-93 -38 -132 -71 -145 -123 -22 -86 19 -104 218 -96
118 5 144 9 195 32 77 34 95 51 95 91 0 40 -18 59 -89 91 -86 40 -186 42 -274
5z m262 -35 c93 -38 91 -73 -7 -115 -91 -39 -372 -39 -372 -1 0 40 80 103 170
132 42 14 157 5 209 -16z"/>
<path d="M4167 11744 c-10 -10 18 -56 63 -101 41 -42 60 -53 60 -33 0 15 -94
140 -106 140 -6 0 -13 -3 -17 -6z"/>
<path d="M8145 11720 c-71 -28 -156 -98 -219 -182 -84 -112 -97 -168 -50 -215
22 -22 31 -25 77 -20 29 3 88 15 132 27 121 33 217 30 330 -11 98 -35 136 -37
175 -12 43 28 52 43 57 87 10 82 -47 170 -163 252 -127 91 -235 114 -339 74z
m372 -256 c15 -24 15 -29 2 -53 -26 -47 -98 -37 -114 16 -16 55 79 87 112 37z"/>
<path d="M4357 11714 c-10 -11 -8 -147 3 -164 17 -27 28 3 32 85 2 66 0 80
-12 83 -9 1 -19 0 -23 -4z"/>
<path d="M4443 11692 c-7 -4 -20 -38 -30 -75 -14 -52 -15 -69 -5 -79 16 -16
29 -2 37 41 3 19 10 42 15 52 12 21 13 69 3 69 -5 0 -14 -4 -20 -8z"/>
<path d="M6206 11249 c-67 -16 -175 -80 -218 -128 -57 -64 -116 -191 -124
-266 -7 -65 17 -217 37 -241 6 -8 30 -19 53 -25 54 -15 98 1 140 50 64 75 136
141 188 174 47 30 82 47 237 120 52 25 72 53 78 110 5 38 1 46 -37 90 -23 26
-61 58 -83 71 -69 39 -203 62 -271 45z m268 -169 c15 -5 28 -20 32 -36 6 -22
2 -32 -20 -51 -35 -30 -71 -29 -101 1 -27 27 -24 58 8 81 25 17 46 19 81 5z"/>
<path d="M7620 10894 c-74 -25 -113 -45 -146 -74 -28 -24 -43 -28 -125 -34
-197 -15 -335 -56 -391 -115 -49 -52 -56 -93 -26 -157 23 -48 27 -51 163 -119
133 -67 166 -82 260 -120 22 -9 65 -28 95 -42 30 -14 76 -28 101 -31 43 -4 48
-2 75 31 16 20 53 76 83 124 30 48 76 120 101 158 70 105 92 152 97 216 7 72
-6 105 -55 144 -33 27 -46 30 -112 33 -48 1 -91 -4 -120 -14z"/>
<path d="M8718 10742 l-48 -3 0 -64 c0 -55 -6 -75 -40 -140 -61 -119 -118
-183 -252 -286 -146 -112 -245 -154 -386 -166 -76 -6 -304 12 -358 28 -28 9
-49 2 -195 -70 -90 -43 -198 -88 -239 -100 -254 -69 -545 -68 -717 4 -33 14
-47 14 -101 4 -63 -13 -89 -29 -77 -49 10 -15 60 -12 100 7 l36 17 34 -39 c91
-105 258 -262 331 -310 44 -30 121 -75 170 -100 84 -43 92 -45 165 -44 l76 2
53 -44 c29 -24 66 -55 81 -69 40 -36 131 -90 181 -107 70 -24 227 -37 300 -24
144 25 304 143 361 265 31 65 57 156 57 196 0 21 12 35 57 66 102 70 182 161
250 286 91 165 132 317 120 437 -4 41 -1 71 13 111 11 30 19 74 20 97 0 40 2
43 41 60 52 23 36 39 -33 35z m-1098 -692 c0 -5 9 -10 21 -10 11 0 18 4 15 8
-5 9 139 -14 157 -25 6 -4 43 -6 81 -4 47 1 72 -2 77 -11 6 -9 12 -8 28 6 11
10 24 16 28 13 9 -6 114 15 147 28 14 6 17 5 11 -4 -5 -10 -2 -11 12 -7 16 5
19 1 21 -30 4 -56 -27 -363 -44 -429 -40 -166 -157 -289 -314 -331 -102 -28
-349 -12 -336 22 5 14 -5 18 -33 15 -29 -4 -191 138 -239 210 -62 93 -152 263
-152 289 0 5 -4 10 -10 10 -5 0 -10 9 -10 20 0 12 -7 20 -17 20 -30 0 -5 11
31 14 28 3 36 -1 36 -13 1 -15 2 -15 13 0 7 9 41 26 77 38 76 26 129 48 150
61 31 20 62 30 72 24 7 -4 8 -2 4 4 -6 10 8 18 17 10 1 -2 9 3 17 10 57 50
140 86 140 62z"/>
<path d="M7670 10010 c0 -5 5 -10 10 -10 6 0 10 5 10 10 0 6 -4 10 -10 10 -5
0 -10 -4 -10 -10z"/>
<path d="M8055 10000 c-16 -7 -17 -9 -3 -9 9 -1 20 4 23 9 7 11 7 11 -20 0z"/>
<path d="M9572 9817 c-6 -7 -38 -67 -72 -134 -51 -102 -70 -131 -124 -180 -35
-32 -83 -68 -107 -80 -56 -28 -174 -51 -267 -54 -78 -2 -120 -20 -92 -39 16
-10 74 -15 155 -11 70 3 188 36 235 66 53 33 161 136 192 182 95 142 121 189
122 222 1 38 -21 53 -42 28z"/>
<path d="M8828 9354 c-11 -11 9 -59 25 -62 18 -4 23 21 11 52 -6 16 -25 21
-36 10z"/>
<path d="M8770 9299 c0 -31 18 -59 35 -53 18 7 20 45 3 62 -19 19 -38 14 -38
-9z"/>
<path d="M8668 9191 c-46 -52 -71 -83 -88 -107 -53 -75 -165 -182 -250 -238
-114 -75 -181 -107 -320 -152 -193 -63 -238 -69 -515 -69 -297 1 -365 10 -487
67 -75 35 -92 39 -112 30 -90 -41 -330 -76 -426 -62 -37 5 -92 12 -121 16 -89
9 -170 36 -213 69 -55 42 -76 49 -76 27 0 -10 5 -23 11 -29 28 -28 -100 -27
-210 2 -66 17 -105 42 -165 105 -45 47 -51 50 -63 35 -14 -20 -7 -38 39 -97
55 -71 170 -117 300 -120 54 -2 82 3 106 16 33 17 34 17 70 -7 72 -49 287 -93
412 -84 94 7 109 10 250 53 l115 36 64 -37 c85 -47 160 -72 246 -80 38 -4 78
-9 90 -11 45 -10 375 -5 440 6 101 17 320 84 400 122 194 95 290 172 498 400
73 81 88 103 81 121 -12 31 -43 26 -76 -12z"/>
<path d="M5493 8894 c-7 -19 16 -64 34 -64 14 0 16 13 7 47 -7 27 -33 38 -41
17z"/>
<path d="M7646 7705 c-9 -26 -7 -32 5 -12 6 10 9 21 6 23 -2 3 -7 -2 -11 -11z"/>
<path d="M8610 2950 c0 -5 7 -10 15 -10 8 0 15 5 15 10 0 6 -7 10 -15 10 -8 0
-15 -4 -15 -10z"/>
<path d="M12200 1430 c-13 -8 -12 -10 3 -10 9 0 17 5 17 10 0 12 -1 12 -20 0z"/>
<path d="M12315 1430 c-3 -6 1 -7 9 -4 18 7 21 14 7 14 -6 0 -13 -4 -16 -10z"/>
<path d="M13517 16053 c-24 -23 19 -113 54 -113 17 0 19 4 13 23 -17 56 -53
104 -67 90z"/>
<path d="M13596 16051 c-3 -4 2 -46 12 -92 15 -73 20 -84 40 -87 19 -3 22 1
22 35 0 87 -50 184 -74 144z"/>
<path d="M13705 15980 c-4 -6 7 -10 25 -10 18 0 29 4 25 10 -3 6 -15 10 -25
10 -10 0 -22 -4 -25 -10z"/>
<path d="M14612 15018 c-16 -20 0 -33 53 -42 105 -17 177 -50 242 -109 35 -31
68 -55 74 -52 22 14 5 49 -48 104 -43 43 -74 64 -118 81 -78 29 -186 38 -203
18z"/>
<path d="M13090 14873 c-63 -22 -145 -80 -207 -146 -47 -50 -67 -87 -45 -87
11 0 55 31 88 63 47 45 133 99 182 113 25 8 76 14 113 14 74 0 91 11 63 41
-14 15 -30 19 -83 18 -36 0 -86 -8 -111 -16z"/>
<path d="M14780 14491 c-29 -28 -31 -35 -25 -74 9 -57 47 -138 103 -221 42
-62 54 -73 119 -103 80 -37 110 -40 153 -18 47 24 52 86 14 189 -18 50 -125
176 -149 176 -7 0 -18 7 -25 15 -7 8 -19 15 -28 15 -9 0 -25 9 -37 20 -12 12
-38 23 -58 27 -31 5 -40 1 -67 -26z m207 -102 c53 -33 53 -89 -1 -89 -28 0
-106 66 -106 89 0 44 35 44 107 0z"/>
<path d="M13017 14333 c-49 -16 -154 -108 -190 -165 -23 -38 -58 -192 -52
-230 12 -68 37 -88 106 -83 56 3 114 38 191 115 127 127 156 302 59 361 -37
23 -51 23 -114 2z m-1 -111 c6 -4 13 -18 17 -31 8 -33 -60 -107 -90 -97 -29 9
-34 38 -13 84 21 47 55 65 86 44z"/>
<path d="M14733 13449 c-18 -5 -33 -12 -33 -15 0 -3 17 -36 39 -72 21 -37 50
-89 64 -117 14 -27 40 -79 58 -115 18 -36 36 -81 40 -100 26 -118 42 -178 55
-203 8 -16 14 -48 14 -71 0 -24 3 -46 7 -50 4 -4 13 -28 20 -54 15 -57 17
-338 3 -347 -5 -3 -10 -19 -10 -34 0 -15 -9 -36 -20 -46 -11 -10 -20 -27 -20
-38 0 -13 -5 -17 -14 -14 -8 3 -34 -4 -58 -17 -66 -34 -124 -49 -147 -36 -11
5 -30 10 -43 10 -22 1 -22 1 -4 15 10 8 23 12 27 9 5 -3 9 2 9 11 0 8 -12 21
-27 27 -16 7 -37 19 -47 27 -11 9 -16 11 -12 3 4 -7 -13 0 -38 15 -24 15 -42
31 -40 35 3 4 -1 8 -8 8 -15 0 -88 70 -88 84 0 5 -7 14 -15 20 -9 7 -17 35
-20 71 -3 33 -10 83 -15 110 -5 28 -12 77 -15 110 -10 127 -16 172 -26 225
-10 52 -9 60 21 135 43 106 82 237 75 252 -2 7 -13 13 -23 13 -13 0 -23 -12
-32 -42 -8 -24 -17 -48 -22 -54 -4 -6 -9 -19 -11 -30 -2 -10 -14 -41 -27 -69
-12 -27 -23 -56 -23 -62 0 -7 -4 -13 -9 -13 -5 0 -6 -4 -3 -10 3 -6 -1 -7 -10
-3 -13 5 -14 7 -3 14 10 7 10 9 -2 9 -9 0 -37 20 -64 45 -27 25 -52 45 -56 45
-3 0 -24 18 -45 41 -22 22 -52 47 -68 55 -24 13 -28 13 -33 0 -9 -25 31 -80
109 -148 40 -34 79 -71 88 -80 9 -10 18 -15 21 -13 2 3 14 -5 26 -18 17 -18
23 -47 37 -182 18 -181 33 -294 40 -305 9 -15 7 -162 -2 -169 -6 -3 -14 -17
-18 -30 -7 -24 -96 -118 -145 -154 -23 -16 -97 -62 -153 -94 -14 -8 -65 -13
-138 -13 -113 0 -117 1 -163 31 -95 63 -154 135 -213 259 -30 63 -54 122 -54
130 0 8 7 67 16 130 9 63 20 147 25 185 13 107 35 209 70 330 18 61 34 124 35
140 2 17 19 72 38 123 19 50 31 92 27 92 -9 0 -104 -152 -116 -186 -4 -10 -18
-36 -31 -56 -13 -21 -23 -43 -23 -49 0 -7 -11 -35 -24 -63 -37 -79 -124 -298
-131 -331 -4 -16 -12 -46 -20 -65 -40 -107 -75 -313 -96 -566 -10 -125 -10
-147 6 -200 39 -135 127 -263 230 -333 48 -33 125 -85 180 -122 79 -52 127
-68 335 -111 50 -10 335 -9 420 2 85 11 182 31 217 46 17 8 38 14 47 14 9 0
16 5 16 10 0 6 9 10 20 10 11 0 20 4 20 10 0 5 19 19 43 31 45 24 76 45 138
98 21 18 39 30 39 27 0 -4 12 0 28 8 92 48 176 214 231 456 9 41 20 80 24 86
18 30 38 224 32 324 -7 124 -15 167 -61 320 -54 179 -133 325 -264 485 -71 87
-156 175 -167 174 -4 0 -23 -5 -40 -10z m-283 -1188 c0 -3 -15 -6 -33 -6 -32
0 -33 1 -24 26 l10 26 24 -20 c12 -11 23 -23 23 -26z"/>
<path d="M11122 12974 c-27 -110 -105 -266 -187 -376 -73 -96 -118 -139 -233
-224 -25 -18 -7 -44 30 -44 27 1 171 37 261 67 16 5 17 2 10 -23 -12 -43 -8
-223 6 -272 17 -59 76 -124 110 -120 36 4 37 28 1 73 -56 70 -73 176 -49 312
13 76 6 113 -21 113 -11 0 -45 -13 -77 -29 -105 -52 -130 -51 -71 4 125 118
268 417 268 560 0 76 -24 56 -48 -41z"/>
<path d="M11193 11844 c-14 -37 58 -154 94 -154 28 0 23 30 -18 99 -43 71 -64
86 -76 55z"/>
<path d="M11425 11350 c36 -128 230 -357 411 -486 171 -122 425 -226 659 -270
150 -28 453 -26 619 5 67 12 82 22 72 47 -6 16 -20 16 -159 9 -436 -22 -590
-5 -867 97 -246 89 -479 269 -648 498 -34 47 -70 94 -78 105 -16 19 -16 19 -9
-5z"/>
<path d="M14420 8554 c0 -32 139 -135 267 -199 97 -48 241 -90 273 -80 25 8
27 35 3 35 -29 0 -235 75 -286 104 -112 62 -214 120 -234 134 -13 8 -23 10
-23 6z"/>
<path d="M12295 8267 c-48 -49 -108 -98 -150 -122 -71 -41 -191 -95 -211 -95
-6 0 -17 -6 -23 -14 -9 -11 -4 -12 31 -5 67 12 156 48 231 93 72 43 180 143
210 195 32 56 -4 34 -88 -52z"/>
<path d="M14331 8048 c-89 -43 -132 -155 -111 -286 18 -109 50 -175 114 -235
64 -60 114 -81 316 -133 157 -41 334 8 390 109 12 20 24 61 27 90 4 48 2 56
-36 112 -24 35 -60 73 -88 91 -117 76 -142 91 -203 123 -36 18 -88 51 -115 72
-107 81 -205 100 -294 57z m147 -125 c42 -37 52 -77 22 -93 -60 -32 -154 62
-108 108 20 20 52 14 86 -15z m34 -153 c65 -19 138 -106 138 -166 0 -42 -40
-77 -79 -67 -71 17 -211 148 -211 199 0 51 51 62 152 34z"/>
<path d="M12224 7774 c-75 -15 -147 -51 -239 -118 -39 -28 -103 -73 -144 -101
-143 -97 -206 -207 -171 -299 14 -37 83 -103 132 -126 91 -42 232 -53 378 -29
90 14 135 37 211 107 55 51 75 79 125 178 57 113 59 120 59 195 0 71 -2 80
-31 116 -57 70 -193 104 -320 77z m86 -150 c33 -38 -46 -115 -103 -100 -46 11
-34 76 18 104 29 16 71 14 85 -4z m81 -187 c34 -41 18 -78 -48 -112 -21 -11
-52 -30 -70 -43 -45 -33 -120 -55 -144 -41 -53 28 14 159 105 206 70 36 121
33 157 -10z"/>
<path d="M4110 7360 c-19 -5 -84 -27 -145 -50 -60 -23 -150 -57 -200 -75 -201
-73 -745 -341 -900 -443 -125 -82 -241 -183 -351 -307 -148 -166 -207 -259
-245 -384 -19 -64 -21 -88 -16 -180 14 -246 49 -332 232 -576 46 -60 100 -125
121 -144 22 -19 80 -72 129 -117 172 -156 308 -253 470 -337 59 -30 265 -127
271 -127 2 0 38 -16 80 -35 41 -19 80 -35 85 -35 20 0 7 16 -23 29 -182 81
-404 191 -505 253 -188 114 -485 378 -595 528 -165 227 -210 350 -212 580 -1
128 1 139 29 207 42 105 166 272 305 414 49 49 187 159 260 205 57 35 697 359
765 386 28 11 64 26 80 33 17 8 84 35 150 60 125 48 265 112 265 120 0 6 -3 5
-50 -5z"/>
<path d="M13619 6646 c-2 -2 -44 -6 -94 -9 -127 -8 -220 -35 -415 -121 -58
-26 -132 -63 -165 -83 -91 -56 -195 -135 -189 -145 3 -5 2 -7 -3 -6 -9 3 -64
-51 -106 -105 -12 -15 -30 -38 -40 -50 -57 -67 -90 -188 -66 -241 6 -12 31
-35 57 -51 47 -30 47 -30 202 -29 121 0 174 5 240 21 116 29 305 85 425 127
131 46 234 56 445 45 91 -4 219 -8 285 -8 200 -1 359 46 412 122 35 48 12 56
-39 12 -43 -37 -74 -52 -178 -83 -62 -18 -220 -21 -520 -8 -216 10 -296 0
-443 -52 -310 -112 -646 -174 -765 -143 -112 31 -131 103 -61 230 92 166 264
299 559 431 198 90 297 112 495 113 242 0 415 -40 625 -146 63 -31 106 -51 95
-43 -11 9 -25 19 -31 23 -30 23 -111 65 -191 101 -75 33 -231 77 -241 68 -3
-3 -10 -2 -16 3 -14 12 -267 36 -277 27z"/>
<path d="M14520 6301 c0 -10 19 -25 25 -20 1 2 -3 10 -11 17 -8 7 -14 8 -14 3z"/>
<path d="M14560 6246 c0 -2 7 -9 15 -16 9 -7 15 -8 15 -2 0 5 -7 12 -15 16 -8
3 -15 4 -15 2z"/>
<path d="M3660 4549 c0 -5 5 -7 10 -4 6 3 10 8 10 11 0 2 -4 4 -10 4 -5 0 -10
-5 -10 -11z"/>
</g>
</svg>
